<svg xmlns="http://www.w3.org/2000/svg" width="1700" height="528" viewBox="0 0 1700 528"><g fill="none" fill-rule="evenodd"><path fill="#FD0" d="M1606.144 160.97h-2.748l-4.072-13.215-.043.042v13.173h-3.09v-15.391h5.414l3.219 11.193h.043l3.496-11.193h5.22v15.391h-3.089v-13.173l-.043-.042zm-15.769-10.999c-.127-1.556-.96-2.323-2.557-2.323-1.216 0-2.453.639-2.453 1.982 0 1.663 1.492 1.855 2.815 2.174 2.345.597 5.799 1.258 5.799 4.349 0 3.816-3.327 5.137-6.631 5.137-3.516 0-6.01-1.364-5.905-5.244h3.37c-.13 1.706.85 2.857 2.578 2.857 1.322 0 3.07-.405 3.07-2.047 0-1.811-2.195-1.939-3.518-2.281-2.152-.532-5.093-1.513-5.093-4.241 0-3.518 3.24-5.074 6.394-5.074 2.985 0 5.307 1.62 5.307 4.711h-3.176zm-118.81-4.71v150.607c0 18.332-8.7 25.474-18.339 25.474-9.658 0-18.354-7.142-18.354-25.474V145.26h-19.632l-46.38 214.882c18.812 15.65 47.308 23.63 84.366 23.63 70.135 0 110.372-28.038 110.372-84.068V145.26h-92.033z"/><path fill="#FFF" d="M1342.858 145.26v154.444c0 22.945 6.847 41.107 19.613 54.668l45.138-209.112h-64.75z"/><path fill="#FD0" d="M1342.858 145.26h-17.58l-19.69 146.208h-.63l-21.564-146.208h-95.236l-21.61 146.208h-.627l-19.628-146.208h-82.355l50.203 232.344h99.805l21.532-150.518h.658l21.527 150.518h99.8l5.008-23.232c-12.766-13.56-19.613-31.723-19.613-54.668V145.26zm-266.194 232.344h13.704l-49.327-232.344h-13.7zM1004.18 145.26h-13.702l49.327 232.344h13.712zM849.186 271.499h49.463l22.039 63.053h.311v-63.053h33.48v104.177h-49.457l-22.096-63.501h-.295v63.501h-33.445zm-83.872 79.785c6.383 0 11.11-3.616 11.11-27.705 0-23.522-4.448-27.706-11.11-27.706-6.61 0-11.092 4.185-11.092 27.706 0 24.089 4.795 27.705 11.092 27.705m0-82.517c35.938 0 53.824 22.346 53.824 54.812 0 32.455-17.886 54.83-53.824 54.83-35.914 0-53.789-22.375-53.789-54.83 0-32.466 17.875-54.812 53.79-54.812M640.282 375.676h41.22V271.499h-41.22zM501.194 271.499h49.481l22.056 63.053h.299v-63.053h33.461v104.177h-49.482l-22.045-63.501h-.326v63.501h-33.444zm-33.059 69.224c0 25.117-18.04 37.687-49.474 37.687-31.456 0-49.471-12.57-49.471-37.687v-69.224h41.25v67.498c0 8.222 3.894 11.433 8.221 11.433s8.228-3.211 8.228-11.433v-67.498h41.245v69.224zm381.051-193.987h49.463l22.039 63.063h.311v-63.063h33.48v104.153h-49.457l-22.096-63.463h-.295v63.463h-33.445zm-84.578 43.424c7.937 0 13.716-2.733 13.716-10.504 0-7.64-5.353-9.239-13.447-9.239h-3.728v19.743h3.46zm-43.85-43.423h61.61c22.363 0 35.491 6.8 35.491 26.433 0 11.974-5.064 21.032-20.664 24.806v.286c10.116.865 15.6 5.315 17.612 13.276 2.305 8.933 2.041 23.65 6.783 39.35h-40.38c-2.438-7.779-3.745-20.9-5.206-29.825-.838-5.216-3.459-7.201-10.086-7.201h-4.769v37.026h-40.392v-104.15zm-109.955-.001h79.211v27.154h-39.65v11.075h36.632v27.145h-36.632v11.684h40.974v27.095h-80.535zm-93.765 28.023h-25.666v-28.023h92.607v28.023h-25.671v76.13h-41.27zm-88.118 1.567c-.152-6.496-3.758-8.665-9.101-8.665-6.622 0-9.53 2.888-9.53 6.077 0 3.722 2.452 5.317 6.777 6.619 7.939 2.336 22.508 5.189 33.03 9.677 13.153 5.468 18.913 14.867 18.913 27.401 0 25.54-20.762 36.225-50.226 36.225-25.096 0-48.172-7.791-48.172-34.917h39.539c0 2.904.589 5.775 2.169 7.952 1.58 1.99 4.179 3.293 8.07 3.293 6.054 0 9.973-3.895 9.973-8.499 0-3.884-3.032-5.9-6.947-7.067l-29.291-8.647c-15.997-4.764-21.613-14.458-21.613-27.853 0-21.646 17.46-33.922 47.878-33.922 25.96 0 45.47 8.113 45.47 32.326h-36.94zm-163.769-29.59h79.227v27.154H304.69v11.075h36.661v27.145H304.69v11.684h40.987v27.095h-80.526zm-61.004 0l-8.826 65.533h-.286l-9.659-65.533h-42.683l-9.694 65.533h-.284l-8.801-65.533H87l22.508 104.153h44.729l9.668-67.472h.286l9.648 67.472h44.74l22.476-104.153z"/></g></svg>